<svg xmlns="http://www.w3.org/2000/svg" xmlns:xlink="http://www.w3.org/1999/xlink" viewBox="0 0 582 490"><defs/><defs><filter id="b" width="110.4%" height="116.2%" x="-5.2%" y="-8.1%" filterUnits="objectBoundingBox"><feGaussianBlur in="SourceAlpha" result="shadowBlurInner1" stdDeviation="10"/><feOffset dy="-20" in="shadowBlurInner1" result="shadowOffsetInner1"/><feComposite in="shadowOffsetInner1" in2="SourceAlpha" k2="-1" k3="1" operator="arithmetic" result="shadowInnerInner1"/><feColorMatrix in="shadowInnerInner1" values="0 0 0 0 0 0 0 0 0 0 0 0 0 0 0 0 0 0 0.0373415647 0"/></filter><path id="a" d="M156 20c43.021498 0 80.056895 25.62955 96.670605 62.453068C271.947186 62.445985 299.020135 50 329 50c46.719192 0 86.37905 30.2246 100.492691 72.186916C436.436182 120.752098 443.63026 120 451 120c58.542183 0 106 47.457817 106 106s-47.457817 106-106 106c-27.765371 0-53.037411-10.675221-71.935614-28.145159C362.175858 339.975948 325.510269 365 283 365c-33.883353 0-64.053528-15.898007-83.458125-40.641622C180.395384 343.303098 154.063671 355 125 355c-58.542183 0-106-47.457817-106-106 0-33.184272 15.24876-62.807006 39.12145-82.243373C52.888771 154.212236 50 140.443472 50 126 50 67.457817 97.457817 20 156 20z"/></defs><g fill="none" fill-rule="evenodd"><use fill="#FFF" xlink:href="#a"/><use fill="#000" filter="url(#b)" xlink:href="#a"/><path stroke="#B5D3AE" stroke-width="8" d="M253.842807 75.68135C274.023845 56.776293 300.657684 46 329 46c46.411638 0 87.264099 29.006105 103.117463 71.617283C438.307307 116.543907 444.618109 116 451 116c60.751322 0 110 49.248678 110 110s-49.248678 110-110 110c-26.244833 0-51.055065-9.232756-70.67266-25.702628C361.499586 345.993797 324.332703 369 283 369c-32.73952 0-63.110964-14.40061-83.827471-38.771075C179.088398 348.588824 152.862844 359 125 359c-60.751323 0-110-49.248678-110-110 0-32.518449 14.203103-62.717167 38.328155-83.448306C48.50687 153.051392 46 139.698044 46 126 46 65.248677 95.248677 16 156 16c41.736111 0 79.197386 23.45878 97.842807 59.68135z"/><g stroke="#FFF" transform="translate(100 117)"><path fill="#317E1E" fill-rule="nonzero" stroke-width="5" d="M129.9 88.5l68.2 70.7.4 17.3h-38.6l-60.8-59.7-60 59.7H.1v-17.6l69.7-69.8L.2 17.9V.5h38.7l60.2 60 61-60h38.3v16l-68.5 72z"/><circle cx="77.9" cy="77.6" r="3.5" stroke-opacity=".8" stroke-width="4"/><circle cx="107.1" cy="88" r="3.5" stroke-opacity=".8" stroke-width="4"/><circle cx="160.4" cy="18" r="3.5" stroke-opacity=".8" stroke-width="4"/><circle cx="52.9" cy="143" r="3.5" stroke-opacity=".8" stroke-width="4"/><path stroke-linecap="square" stroke-linejoin="round" stroke-width="4" d="M34.6 161.2L44 152m62.3-79.9l49.4-49.4"/><path stroke-linejoin="round" stroke-width="4" d="M104.3 85.7L32.3 13H13.2m156.2 0H185M13.2 163.7l79.2-78"/><path stroke-linejoin="round" stroke-opacity=".7" stroke-width="4" d="M118.3 77.6L183 13"/><path stroke-linejoin="round" stroke-width="4" d="M22.7 22.7l52.7 52.6"/><path stroke-linejoin="round" stroke-opacity=".7" stroke-width="4" d="M118.3 99.7l32 32"/><path stroke-linejoin="round" stroke-opacity=".696296" stroke-width="4" d="M157.2 136.6l27.8 27.8"/><path stroke-linejoin="round" stroke-width="4" d="M55.6 140.5L99 97.9l67.1 66.6h4.9"/></g><path fill="#008400" fill-rule="nonzero" stroke="#FFF" stroke-width="4" d="M309.033092 249.386031c-.023387-.000776-.048501-.0012-.075349-.0012h-.935394c-.046914 0-.089383.001155-.127424.003194-.002039.038041-.003194.08051-.003194.127424v22.969102c0 .046914.001155.089383.003194.127424.038041.002039.08051.003194.127424.003194h1.039326c.026849 0 .051963-.000424.075349-.0012.002112-.038699.003303-.081835.003303-.129418v-10.210675h9.456461v10.470506c0 5.625637-3.129982 8.755618-8.755618 8.755618h-2.754214c-5.625637 0-8.755618-3.129981-8.755618-8.755618v-23.488764c0-5.625637 3.129981-8.755618 8.755618-8.755618h2.702247c5.625637 0 8.703652 3.078015 8.703652 8.703652v9.431179h-9.456461v-9.119382c0-.047583-.001191-.090719-.003302-.129418zm21.076591 22.761441h6.132023v9.04073H320.54929v-40.376404h9.560393v31.335674zM347.875771 281.5h-2.962078c-5.625637 0-8.755618-3.129981-8.755618-8.755618v-23.488764c0-5.625637 3.129981-8.755618 8.755618-8.755618h2.962078c5.625637 0 8.755618 3.129981 8.755618 8.755618v23.488764c0 5.625637-3.129981 8.755618-8.755618 8.755618zm-.835564-8.681899c-.001061.002533-.001908.004808-.002542.006803.001819-.005719.00361-.012009.005359-.018869zm.027486-.204132c.002112-.038699.003303-.081835.003303-.129418v-22.969102c0-.047583-.001191-.090719-.003303-.129418-.023386-.000776-.0485-.0012-.075349-.0012h-1.143258c-.046914 0-.089384.001155-.127424.003194-.00204.038041-.003194.08051-.003194.127424v22.969102c0 .046914.001154.089383.003194.127424.03804.002039.08051.003194.127424.003194h1.143258c.026849 0 .051963-.000424.075349-.0012zm-1.548501-23.198285a.262846.262846 0 00-.005222.001616c.004413-.001417.00981-.003625.016027-.006621zm.230128 23.398761a.260253.260253 0 00.001617.005222c-.001418-.004414-.003625-.009811-.006622-.016027zm-.228372-.229174c-.002538-.001037-.004871-.001894-.006978-.002571.005998.001926.012699.003824.020102.005677zm23.623339.026704c.03804.002039.08051.003194.127424.003194h.883427c.026849 0 .051963-.000424.075349-.0012.002112-.038699.003303-.081835.003303-.129418v-31.672753h9.560393v31.932584c0 5.625637-3.129981 8.755618-8.755618 8.755618h-2.702247c-5.625637 0-8.755618-3.129981-8.755618-8.755618v-31.932584h9.560393v31.672753c0 .046914.001155.089383.003194.127424zm23.12487 8.576227h-10.366573v-40.376404h10.366573c6.491698 0 9.950843 3.476269 9.950843 9.950842v20.47472c0 6.474573-3.459145 9.950842-9.950843 9.950842zm-.806179-31.491573v22.606742h.026685c1.053502 0 1.169944-.119353 1.169944-1.22191v-20.162922c0-1.102557-.116442-1.22191-1.169944-1.22191h-.026685z"/><g fill="#000" fill-rule="nonzero" stroke="#FFF" stroke-width="4"><path d="M255.3 222.7v-34.8c0-.5 0-.5-.8-.5-.7 0-.7 0-.7.6v34.7c0 .6 0 .5.7.5.8 0 .7 0 .7-.5h.1zm-16.1 10.5c-3.4-2-5.2-4.8-5.2-8.4v-40.2c0-3 1.5-5.6 4.3-7.4 2.775979-1.658746 5.967484-2.491313 9.2-2.4 3 0 5.6.3 7.7 1V162H275v73h-15l-.8-1.1c-6.409243 2.907452-13.809713 2.648436-20-.7zm58.7-45c0-.8 0-.8-.8-.8s-.8 0-.8.8V199h1.6v-10.8zm-1.6 34.3c0 .7 0 .7.8.7.7 0 .8 0 .8-.8v-10.2h19.8v10.4c0 8.9-7.3 13.2-20.7 13.2-13.3 0-20.5-4.5-20.5-13.7v-33.5c0-9.2 7.2-13.8 20.5-13.8 13.4 0 20.7 4.4 20.7 13.4v23.3h-21.4v11zm44 .2V188c0-.6 0-.6-.7-.6-.8 0-.8 0-.8.5v34.8c0 .6 0 .5.8.5.7 0 .7 0 .7-.5zm-6.3 12.4h-15V162h19.8v13.8c2.1-.7 4.7-1 7.9-1 3.1 0 6.1.8 8.8 2.3 3 1.6 4.6 4.2 4.6 7.5v40.2c0 3.6-1.8 6.4-5.3 8.4-6.179156 3.28352-13.534247 3.505282-19.9.6l-.9 1.3zm50.651611-1.276514C383.152539 234.653564 378.1 235.8 375 235.8c-3.198745.072293-6.352958-.759587-9.1-2.4-2.8-1.7-4.4-4.2-4.4-7.2v-51h19.8v47.5c0 .6 0 .5.8.5.7 0 .7 0 .7-.4V175h19.8v60h-17.401514l-.546875-1.176514zM425.3 223.3V188c0-.6 0-.6-.7-.6-.8 0-.8 0-.8.6v35c0 .6 0 .6.8.6.7 0 .7 0 .7-.4v.1zm.275928 11.243848C423.302246 235.372558 420.2 235.8 417.5 235.8c-3.198745.072293-6.352958-.759587-9.1-2.4-2.9-1.7-4.4-4.2-4.4-7.2V186c0-7.4 5.2-11.2 14.6-11.2 2.3 0 5 .7 8.3 2l1.7-1.7H445v56.3c0 7.8146-1 9.5-2.8 12-2.1 3.2-8.707275 5.6-17.7 5.6s-12.819336-1.170264-17.7-1.95288v-10.866944h14.051563c3.045898 0 4.724365-.836328 4.724365-1.556153v-.080175z"/></g><text fill="#317E1E" font-family="Tungsten-Medium, Tungsten" font-size="48" font-weight="400" letter-spacing="4"><tspan x="177.536" y="488">COMING SOON</tspan></text></g></svg>